<?xml version="1.0" encoding="iso-8859-1"?>
<!-- Generator: Adobe Illustrator 19.0.0, SVG Export Plug-In . SVG Version: 6.00 Build 0)  -->
<svg version="1.1" id="Capa_1" xmlns="http://www.w3.org/2000/svg" xmlns:xlink="http://www.w3.org/1999/xlink" x="0px" y="0px"
	 viewBox="0 0 511.999 511.999" style="enable-background:new 0 0 511.999 511.999;" xml:space="preserve">
<path style="fill:#DBA191;" d="M41.089,363.835v-71.486c0-9.333,7.636-16.969,16.969-16.969l0,0c9.333,0,16.969,7.636,16.969,16.969
	v71.486H41.089z"/>
<path style="fill:#F9C5B5;" d="M226.789,313.905L226.789,313.905c-9.1-6.528-21.887-4.423-28.416,4.678l-31.245,42.103h-24.226
	v-65.48c0-8.657-6.303-16.261-14.9-17.294c-10.247-1.231-19.039,6.83-19.039,16.844v-25.203c0-9.333-7.636-16.969-16.969-16.969l0,0
	c-9.333,0-16.969,7.636-16.969,16.969v91.131H41.089v-50.86c0-9.333-7.636-16.969-16.969-16.969l0,0
	c-9.333,0-16.969,7.636-16.969,16.969v65.928c0,0.335,0.013,0.668,0.032,0.998c-0.02,0.298-0.032,0.6-0.032,0.902
	c0,9.333,9.857,16.969,21.904,16.969l54.658,9.694c0.005,0.001,35.613,17.255,35.613,56.706v39.375
	c0,6.407,5.194,11.601,11.601,11.601h60.975c6.407,0,11.601-5.194,11.601-11.601V397.235l3.113-8.213l11.788-28.338l13.064-18.366
	C237.996,333.219,235.891,320.432,226.789,313.905z"/>
<path style="fill:#DBA191;" d="M470.911,371.217v-78.868c0-9.333-7.636-16.969-16.969-16.969l0,0
	c-9.333,0-16.969,7.636-16.969,16.969v78.868H470.911z"/>
<path style="fill:#F9C5B5;" d="M504.848,309.827c0-10.015-8.792-18.075-19.039-16.844c-8.596,1.032-14.9,8.635-14.9,17.293v50.411
	h-33.939v-90.683c0-8.657-6.303-16.261-14.9-17.294c-10.247-1.231-19.039,6.83-19.039,16.844v25.203
	c0-9.333-7.636-16.969-16.969-16.969l0,0c-9.333,0-16.969,7.636-16.969,16.969v65.928h-23.988l-31.482-42.103
	c-6.528-9.1-19.314-11.205-28.416-4.678c-9.1,6.527-11.205,19.314-4.678,28.414l13.064,18.366l11.789,28.338l3.113,8.213v103.163
	c0,6.407,5.194,11.601,11.601,11.601h60.975c6.407,0,11.601-5.194,11.601-11.601v-39.372c0-39.451,35.608-56.705,35.613-56.706
	l54.658-9.694c12.048,0,21.904-7.635,21.904-16.969c0-0.303-0.012-0.603-0.032-0.902c0.019-0.33,0.032-0.663,0.032-0.998v-65.93
	H504.848z"/>
<g style="opacity:0.1;">
	<path d="M504.848,310.297c0-8.98-6.782-16.75-15.739-17.395c-4.453-0.321-8.577,1.116-11.776,3.669
		c3.904,3.116,6.423,7.902,6.423,13.255v65.928c0,0.335-0.013,0.668-0.032,0.998c0.02,0.298,0.032,0.6,0.032,0.902
		c0,9.333-9.858,16.969-21.904,16.969l-54.658,9.694c-0.005,0.001-35.613,17.255-35.613,56.706c0,39.453,0,50.976,0,50.976h9.492
		c6.407,0,11.601-5.194,11.601-11.601v-39.373c0-39.451,35.608-56.705,35.613-56.706l54.658-9.694
		c12.048,0,21.904-7.635,21.904-16.969c0-0.303-0.012-0.603-0.032-0.902c0.019-0.33,0.032-0.663,0.032-0.998V310.297z"/>
</g>
<g style="opacity:0.1;">
	<path d="M7.151,310.297c0-8.98,6.782-16.75,15.739-17.395c4.453-0.321,8.577,1.116,11.776,3.669
		c-3.904,3.116-6.423,7.902-6.423,13.255v65.928c0,0.335,0.013,0.668,0.032,0.998c-0.02,0.298-0.032,0.6-0.032,0.902
		c0,9.333,9.857,16.969,21.904,16.969l54.658,9.694c0.005,0.001,35.613,17.255,35.613,56.706c0,39.453,0,50.976,0,50.976h-9.492
		c-6.407,0-11.601-5.194-11.601-11.601v-39.373c0-39.451-35.608-56.705-35.613-56.706l-54.658-9.694
		c-12.048,0-21.904-7.635-21.904-16.969c0-0.303,0.012-0.603,0.032-0.902c-0.019-0.33-0.032-0.663-0.032-0.998L7.151,310.297z"/>
</g>
<polygon style="fill:#65CDEF;" points="258.501,273.162 90.25,98.231 154.516,0 362.485,0 426.751,98.231 "/>
<g style="opacity:0.5;">
	<polygon style="fill:#3A9CB4;" points="258.501,273.162 426.751,98.231 90.25,98.231 	"/>
</g>
<polygon style="opacity:0.5;fill:#E3E3E3;enable-background:new    ;" points="362.485,0 260.214,0 259.045,0 154.516,0 
	207.405,98.231 259.617,1.112 309.596,98.231 "/>
<polygon style="fill:#3A9CB4;" points="309.596,98.231 258.501,273.162 258.501,273.162 207.405,98.231 "/>
<g>
</g>
<g>
</g>
<g>
</g>
<g>
</g>
<g>
</g>
<g>
</g>
<g>
</g>
<g>
</g>
<g>
</g>
<g>
</g>
<g>
</g>
<g>
</g>
<g>
</g>
<g>
</g>
<g>
</g>
</svg>
