<?xml version="1.0" encoding="iso-8859-1"?>
<!-- Generator: Adobe Illustrator 19.0.0, SVG Export Plug-In . SVG Version: 6.00 Build 0)  -->
<svg version="1.1" id="Capa_1" xmlns="http://www.w3.org/2000/svg" xmlns:xlink="http://www.w3.org/1999/xlink" x="0px" y="0px"
	 viewBox="0 0 512.004 512.004" style="enable-background:new 0 0 512.004 512.004;" xml:space="preserve">
<g>
	<g>
		<path d="M428.055,98.759l-62.34-95.287C364.298,1.307,361.884,0,359.294,0H157.64c-0.327-0.004-0.655,0.017-0.983,0.056
			c-0.055,0.006-0.109,0.016-0.164,0.023c-0.238,0.034-0.477,0.079-0.713,0.135c-0.07,0.016-0.138,0.033-0.208,0.051
			c-0.225,0.06-0.448,0.133-0.67,0.216c-0.061,0.023-0.124,0.042-0.185,0.067c-0.269,0.107-0.535,0.227-0.796,0.368
			c-0.002,0.001-0.004,0.002-0.006,0.003c-0.019,0.01-0.037,0.024-0.056,0.035c-0.24,0.132-0.471,0.276-0.69,0.43
			c-0.067,0.046-0.129,0.097-0.194,0.146c-0.175,0.13-0.344,0.266-0.505,0.408c-0.063,0.056-0.126,0.115-0.188,0.173
			c-0.164,0.156-0.319,0.317-0.468,0.485c-0.047,0.053-0.095,0.104-0.141,0.16c-0.195,0.234-0.378,0.475-0.543,0.728l-23.383,35.742
			c-2.32,3.547-1.326,8.302,2.22,10.622c3.544,2.317,8.3,1.325,10.621-2.22l16.33-24.962l39.1,72.621h-86.611l15.539-23.752
			c2.32-3.547,1.326-8.302-2.22-10.622c-3.547-2.319-8.302-1.327-10.621,2.22L88.799,98.759c-1.958,2.993-1.589,6.942,0.891,9.52
			l161.318,167.724c0.911,1.869,2.567,3.368,4.718,4.003c0.725,0.214,1.456,0.316,2.176,0.316c0.074,0,0.144-0.015,0.217-0.017
			c0.102,0.004,0.205,0.015,0.307,0.015c0.103,0,0.205-0.011,0.308-0.015c0.073,0.002,0.144,0.017,0.217,0.017
			c0.719,0,1.451-0.102,2.176-0.316c2.152-0.635,3.808-2.134,4.718-4.004l161.318-167.723
			C429.642,105.701,430.012,101.753,428.055,98.759z M346.38,15.346l-38.39,71.412l-38.39-71.412H346.38z M295.155,95.288H221.7
			l36.727-68.317L295.155,95.288z M170.404,15.346h76.85l-38.395,71.421L170.404,15.346z M113.246,110.633h89.883l39.804,134.838
			L113.246,110.633z M258.427,243.759l-39.299-133.126h78.597L258.427,243.759z M273.922,245.47l39.804-134.837h89.883
			L273.922,245.47z M320.826,95.288l39.072-72.678l47.548,72.678H320.826z"/>
	</g>
</g>
<g>
	<g>
		<path d="M243.191,323.768c-1.192-7.242-5.117-13.576-11.053-17.833c-12.258-8.792-29.369-6.002-38.203,6.209l-28.647,37.732
			h-11.32v-56.28c0-13.307-10.826-24.134-24.133-24.134c-3.101,0-6.062,0.594-8.788,1.663v-1.978
			c0-13.307-10.826-24.134-24.133-24.134c-13.189,0-23.933,10.635-24.124,23.779c-2.728-1.072-5.693-1.667-8.797-1.667
			c-11.492,0-21.128,8.077-23.544,18.85c-2.885-1.22-6.053-1.897-9.378-1.897c-13.307,0-24.133,10.826-24.133,24.134v63.952
			c0,0.318,0.007,0.634,0.021,0.948c-0.013,0.298-0.02,0.596-0.02,0.896c0,13.108,12.587,23.806,28.204,24.125l51.235,9.087
			c5.039,2.75,29.372,17.594,29.372,47.658v6.264c0,4.238,3.435,7.672,7.673,7.672s7.673-3.434,7.673-7.672v-6.264
			c0-43.5-39.201-62.073-39.596-62.217c-0.416-0.15-0.846-0.266-1.282-0.344L37.2,382.915c-0.442-0.079-0.891-0.118-1.34-0.118
			c-8,0-13.575-4.631-13.575-8.788c0-0.117,0.005-0.234,0.013-0.35c0.023-0.326,0.023-0.655,0.004-0.981
			c-0.01-0.17-0.018-0.341-0.018-0.514v-63.952c0-4.846,3.943-8.789,8.788-8.789c4.843,0,8.782,3.937,8.788,8.778v49.33v0.01v0.005
			c0,4.238,3.435,7.673,7.673,7.673h65.842h32.921h35.972c4.237,0,7.673-3.434,7.673-7.673c0-3.52-2.373-6.48-5.605-7.383
			l21.88-28.819c0.042-0.055,0.083-0.11,0.124-0.168c3.881-5.412,11.444-6.66,16.857-2.774c2.604,1.867,4.328,4.659,4.855,7.858
			c0.527,3.199-0.212,6.395-2.098,9.024l-12.672,17.816c-0.011,0.016-0.02,0.033-0.032,0.049c-0.089,0.128-0.171,0.262-0.253,0.396
			c-0.057,0.094-0.118,0.186-0.171,0.281c-0.055,0.099-0.103,0.204-0.154,0.306c-0.069,0.137-0.137,0.273-0.196,0.412
			c-0.008,0.019-0.018,0.036-0.027,0.055l-11.435,27.487c-0.032,0.076-0.061,0.151-0.09,0.228l-3.02,7.968
			c-0.329,0.87-0.498,1.79-0.498,2.719v103.651h-66.308V485.38c0-4.238-3.435-7.673-7.672-7.673c-4.237,0-7.673,3.434-7.673,7.673
			v18.947c0,4.238,3.435,7.673,7.673,7.673h81.653c4.237,0,7.672-3.434,7.672-7.673V394.409l2.479-6.54l11.058-26.579l12.153-17.086
			C242.696,338.269,244.383,331.012,243.191,323.768z M72.781,349.862H55.206v-41.648c0-0.006,0-0.013,0-0.019V291.26
			c-0.001-4.846,3.942-8.788,8.788-8.788s8.788,3.943,8.788,8.788V349.862z M105.701,293.596v56.264H88.126v-58.602v-22.11
			c0-4.846,3.943-8.789,8.788-8.789c4.845,0,8.788,3.943,8.788,8.789V293.596z M138.622,349.876h-17.575v-56.28
			c0-4.846,3.943-8.789,8.788-8.789c4.846,0,8.788,3.943,8.788,8.789V349.876z"/>
	</g>
</g>
<g>
	<g>
		<path d="M505.064,308.214h-0.001c0-13.307-10.826-24.134-24.133-24.134c-3.324,0-6.493,0.675-9.378,1.897
			c-2.416-10.773-12.052-18.85-23.544-18.85c-3.104,0-6.07,0.595-8.797,1.667c-0.191-13.144-10.936-23.779-24.124-23.779
			c-13.307,0-24.133,10.826-24.133,24.134v1.978c-2.725-1.07-5.688-1.663-8.788-1.663c-13.307,0-24.133,10.826-24.133,24.134v56.28
			h-11.32l-28.647-37.732c-8.834-12.212-25.946-14.998-38.203-6.209c-5.935,4.257-9.861,10.591-11.052,17.835
			c-1.193,7.243,0.495,14.501,4.734,20.41l12.171,17.112l11.058,26.578l2.479,6.541v43.433c0,4.238,3.435,7.672,7.673,7.672
			c4.237,0,7.673-3.434,7.673-7.672v-44.838c0-0.929-0.169-1.851-0.498-2.719l-3.02-7.968c-0.029-0.076-0.059-0.151-0.09-0.228
			l-11.435-27.487c-0.008-0.019-0.018-0.037-0.027-0.055c-0.059-0.138-0.127-0.273-0.195-0.409c-0.051-0.104-0.1-0.21-0.157-0.31
			c-0.051-0.092-0.109-0.181-0.166-0.272c-0.084-0.138-0.168-0.275-0.259-0.406c-0.01-0.015-0.018-0.032-0.03-0.046l-12.689-17.841
			c-1.868-2.604-2.607-5.799-2.08-8.998c0.527-3.199,2.251-5.99,4.855-7.858c5.414-3.884,12.976-2.637,16.857,2.774
			c0.041,0.057,0.082,0.113,0.124,0.168l21.88,28.819c-3.232,0.903-5.605,3.862-5.605,7.383c0,4.238,3.435,7.673,7.672,7.673h35.972
			h32.921h65.841c4.237,0,7.673-3.434,7.673-7.673v-0.005v-0.01v-49.33c0.005-4.842,3.946-8.778,8.788-8.778
			c4.846,0,8.788,3.943,8.788,8.789v63.952c0,0.173-0.008,0.344-0.018,0.514c-0.019,0.326-0.018,0.655,0.004,0.981
			c0.008,0.116,0.013,0.233,0.013,0.35c0,4.156-5.575,8.788-13.575,8.788c-0.449,0-0.897,0.039-1.34,0.118l-53.018,9.403
			c-0.437,0.078-0.865,0.192-1.282,0.344c-0.396,0.144-39.596,18.717-39.596,62.217v41.775h-66.308v-30.846
			c0-4.238-3.435-7.673-7.673-7.673c-4.237,0-7.673,3.434-7.673,7.673v38.518c0,4.238,3.435,7.673,7.673,7.673h81.653
			c4.237,0,7.673-3.434,7.673-7.673v-49.448c0-30.064,24.334-44.907,29.372-47.658l51.235-9.087
			c15.617-0.319,28.204-11.019,28.204-24.125c0-0.3-0.007-0.598-0.02-0.896c0.013-0.314,0.021-0.63,0.021-0.948V308.214z
			 M390.954,349.877h-17.576v-56.279h0.001c0-4.846,3.943-8.789,8.788-8.789c4.845,0,8.788,3.943,8.788,8.789V349.877z
			 M423.876,291.259v58.602h-17.576v-56.264v-24.448h0.001c0-4.846,3.943-8.789,8.788-8.789c4.845,0,8.788,3.943,8.788,8.789
			V291.259z M456.798,308.195c0,0.007,0,0.013,0,0.019v41.648h-17.576V291.26c-0.001-4.846,3.942-8.788,8.788-8.788
			c4.846,0,8.789,3.943,8.789,8.788V308.195z"/>
	</g>
</g>
<g>
</g>
<g>
</g>
<g>
</g>
<g>
</g>
<g>
</g>
<g>
</g>
<g>
</g>
<g>
</g>
<g>
</g>
<g>
</g>
<g>
</g>
<g>
</g>
<g>
</g>
<g>
</g>
<g>
</g>
</svg>
