<?xml version="1.0" encoding="iso-8859-1"?>
<!-- Generator: Adobe Illustrator 19.0.0, SVG Export Plug-In . SVG Version: 6.00 Build 0)  -->
<svg version="1.1" id="Capa_1" xmlns="http://www.w3.org/2000/svg" xmlns:xlink="http://www.w3.org/1999/xlink" x="0px" y="0px"
	 viewBox="0 0 512.004 512.004" style="enable-background:new 0 0 512.004 512.004;" xml:space="preserve">
<path style="fill:#DBA191;" d="M47.532,360.602V291.26c0-9.054,7.408-16.46,16.46-16.46l0,0c9.054,0,16.46,7.408,16.46,16.46v69.343
	h-32.92V360.602z"/>
<path style="fill:#F9C5B5;" d="M227.667,312.17L227.667,312.17c-8.827-6.332-21.231-4.29-27.564,4.538l-30.309,40.841h-23.499
	v-63.517c0-8.398-6.115-15.774-14.453-16.775c-9.94-1.194-18.468,6.625-18.468,16.339v-24.448c0-9.054-7.408-16.46-16.46-16.46l0,0
	c-9.054,0-16.46,7.408-16.46,16.46v88.4H47.532v-49.335c0-9.054-7.408-16.46-16.46-16.46l0,0c-9.054,0-16.46,7.408-16.46,16.46
	v63.952c0,0.325,0.012,0.648,0.031,0.968c-0.019,0.289-0.031,0.582-0.031,0.875c0,9.054,9.562,16.46,21.248,16.46l53.019,9.403
	c0.005,0.001,34.546,16.737,34.546,55.006v38.195c0,6.215,5.038,11.253,11.253,11.253h59.147c6.215,0,11.253-5.038,11.253-11.253
	v-100.07l3.02-7.967l11.435-27.488l12.672-17.816C238.536,330.905,236.494,318.501,227.667,312.17z"/>
<path style="fill:#DBA191;" d="M464.469,367.763V291.26c0-9.054-7.408-16.46-16.46-16.46l0,0c-9.054,0-16.46,7.408-16.46,16.46
	v76.504h32.92V367.763z"/>
<path style="fill:#F9C5B5;" d="M497.391,308.214c0-9.714-8.529-17.533-18.468-16.339c-8.339,1.002-14.453,8.376-14.453,16.774v48.9
	h-32.921v-87.965c0-8.398-6.114-15.774-14.453-16.775c-9.939-1.194-18.468,6.625-18.468,16.339v24.448
	c0-9.054-7.408-16.46-16.46-16.46l0,0c-9.054,0-16.46,7.408-16.46,16.46v63.952h-23.269l-30.539-40.841
	c-6.332-8.828-18.735-10.869-27.564-4.538c-8.827,6.331-10.869,18.735-4.538,27.563l12.672,17.816l11.435,27.488l3.02,7.967v100.07
	c0,6.215,5.038,11.253,11.253,11.253h59.147c6.215,0,11.253-5.038,11.253-11.253v-38.195c0-38.269,34.541-55.005,34.546-55.006
	l53.019-9.403c11.687,0,21.248-7.407,21.248-16.46c0-0.294-0.011-0.585-0.031-0.875c0.018-0.32,0.031-0.643,0.031-0.968v-63.951
	H497.391z"/>
<g style="opacity:0.1;">
	<path d="M497.391,308.669c0-8.711-6.579-16.248-15.267-16.873c-4.319-0.311-8.32,1.082-11.423,3.559
		c3.787,3.023,6.23,7.665,6.23,12.858v63.952c0,0.325-0.012,0.648-0.031,0.968c0.019,0.289,0.031,0.582,0.031,0.875
		c0,9.054-9.562,16.46-21.248,16.46l-53.019,9.403c-0.005,0.001-34.546,16.737-34.546,55.006c0,38.271,0,49.448,0,49.448h9.207
		c6.215,0,11.253-5.038,11.253-11.253v-38.195c0-38.269,34.541-55.005,34.546-55.006l53.019-9.403
		c11.687,0,21.248-7.407,21.248-16.46c0-0.294-0.011-0.585-0.031-0.875c0.018-0.32,0.031-0.643,0.031-0.968V308.669z"/>
</g>
<g style="opacity:0.1;">
	<path d="M14.612,308.669c0-8.711,6.579-16.248,15.267-16.873c4.319-0.311,8.32,1.082,11.423,3.559
		c-3.787,3.023-6.23,7.665-6.23,12.858v63.952c0,0.325,0.012,0.648,0.031,0.968c-0.019,0.289-0.031,0.582-0.031,0.875
		c0,9.054,9.562,16.46,21.248,16.46l53.019,9.403c0.005,0.001,34.546,16.737,34.546,55.006c0,38.271,0,49.448,0,49.448h-9.207
		c-6.215,0-11.253-5.038-11.253-11.253v-38.195c0-38.269-34.541-55.005-34.546-55.006l-53.019-9.403
		c-11.687,0-21.248-7.407-21.248-16.46c0-0.294,0.011-0.585,0.031-0.875c-0.018-0.32-0.031-0.643-0.031-0.968L14.612,308.669z"/>
</g>
<polygon style="fill:#65CDEF;" points="258.427,272.648 95.22,102.961 157.559,7.674 359.294,7.674 421.634,102.961 "/>
<g style="opacity:0.5;">
	<polygon style="fill:#3A9CB4;" points="258.427,272.648 421.634,102.961 95.22,102.961 	"/>
</g>
<polygon style="opacity:0.5;fill:#E3E3E3;enable-background:new    ;" points="359.294,7.674 260.09,7.674 258.955,7.674 
	157.559,7.674 208.864,102.961 259.51,8.752 307.991,102.961 "/>
<polygon style="fill:#3A9CB4;" points="307.991,102.961 258.427,272.648 258.427,272.648 208.864,102.961 "/>
<path d="M427.164,108.279c2.479-2.578,2.848-6.527,0.891-9.52l-62.34-95.287C364.298,1.307,361.884,0,359.294,0H157.64
	c-0.327-0.004-0.655,0.017-0.983,0.056c-0.055,0.006-0.109,0.016-0.164,0.024c-0.238,0.034-0.477,0.079-0.713,0.135
	c-0.07,0.016-0.138,0.033-0.208,0.051c-0.225,0.06-0.448,0.133-0.67,0.216c-0.061,0.023-0.124,0.042-0.185,0.066
	c-0.269,0.107-0.535,0.227-0.796,0.368c-0.002,0.001-0.004,0.002-0.006,0.003c-0.019,0.01-0.037,0.024-0.056,0.035
	c-0.24,0.132-0.471,0.276-0.691,0.43c-0.066,0.046-0.129,0.097-0.194,0.146c-0.175,0.13-0.344,0.266-0.505,0.408
	c-0.063,0.056-0.126,0.115-0.188,0.173c-0.164,0.155-0.319,0.317-0.468,0.485c-0.047,0.053-0.095,0.104-0.141,0.16
	c-0.195,0.234-0.379,0.475-0.543,0.728l-23.383,35.742c-2.32,3.547-1.326,8.302,2.22,10.622c3.544,2.317,8.3,1.325,10.621-2.22
	l16.33-24.962l39.1,72.621h-86.611l15.539-23.752c2.32-3.547,1.326-8.302-2.22-10.622c-3.547-2.319-8.302-1.327-10.621,2.22
	L88.799,98.759c-1.958,2.993-1.589,6.942,0.891,9.52l161.318,167.724c0.911,1.869,2.567,3.368,4.718,4.003
	c0.725,0.214,1.456,0.316,2.176,0.316c0.074,0,0.144-0.015,0.217-0.017c0.102,0.004,0.205,0.015,0.307,0.015
	c0.103,0,0.205-0.011,0.308-0.015c0.073,0.002,0.144,0.017,0.217,0.017c0.719,0,1.451-0.102,2.176-0.316
	c2.152-0.635,3.808-2.134,4.718-4.004L427.164,108.279z M258.427,26.971l36.728,68.317H221.7L258.427,26.971z M297.726,110.633
	l-39.299,133.126l-39.299-133.126H297.726z M313.726,110.633h89.883L273.922,245.47L313.726,110.633z M269.6,15.346h76.781
	l-38.39,71.412L269.6,15.346z M208.859,86.767l-38.455-71.421h76.85L208.859,86.767z M242.933,245.471L113.246,110.633h89.883
	L242.933,245.471z M407.446,95.288h-86.62l39.072-72.678L407.446,95.288z"/>
<path d="M232.138,305.935c-12.258-8.792-29.369-6.002-38.203,6.209l-28.647,37.732h-11.32v-56.28
	c0-13.307-10.826-24.134-24.133-24.134c-3.101,0-6.062,0.594-8.788,1.663v-1.978c0-13.307-10.826-24.134-24.133-24.134
	c-13.189,0-23.933,10.635-24.124,23.779c-2.728-1.072-5.693-1.668-8.797-1.668c-11.492,0-21.128,8.077-23.544,18.85
	c-2.885-1.22-6.053-1.897-9.378-1.897c-13.307,0-24.133,10.826-24.133,24.134v63.952c0,0.318,0.007,0.634,0.021,0.948
	c-0.013,0.298-0.02,0.596-0.02,0.896c0,13.108,12.587,23.806,28.204,24.126l51.235,9.087c5.039,2.75,29.372,17.594,29.372,47.658
	v6.264c0,4.238,3.435,7.673,7.673,7.673s7.673-3.434,7.673-7.673v-6.264c0-43.5-39.2-62.073-39.596-62.217
	c-0.416-0.15-0.846-0.266-1.282-0.344L37.2,382.915c-0.442-0.079-0.891-0.118-1.34-0.118c-8,0-13.575-4.631-13.575-8.788
	c0-0.117,0.005-0.234,0.013-0.35c0.023-0.326,0.024-0.655,0.004-0.981c-0.01-0.17-0.018-0.341-0.018-0.514v-63.952
	c0-4.846,3.943-8.789,8.788-8.789c4.843,0,8.782,3.937,8.788,8.778v49.33v0.01v0.005c0,4.238,3.435,7.673,7.673,7.673h65.842h32.921
	h35.972c4.237,0,7.673-3.434,7.673-7.673c0-3.52-2.373-6.48-5.605-7.383l21.88-28.819c0.042-0.055,0.083-0.11,0.124-0.168
	c3.881-5.412,11.444-6.66,16.857-2.774c2.604,1.867,4.328,4.659,4.855,7.858c0.527,3.199-0.212,6.395-2.098,9.024l-12.672,17.816
	c-0.011,0.016-0.02,0.033-0.032,0.049c-0.089,0.128-0.171,0.262-0.253,0.396c-0.057,0.094-0.118,0.186-0.171,0.281
	c-0.055,0.099-0.103,0.204-0.154,0.306c-0.069,0.137-0.137,0.273-0.196,0.412c-0.008,0.019-0.018,0.036-0.027,0.055l-11.435,27.487
	c-0.032,0.076-0.061,0.151-0.09,0.228l-3.02,7.968c-0.329,0.87-0.498,1.79-0.498,2.719v103.651h-66.308V485.38
	c0-4.238-3.435-7.673-7.673-7.673s-7.673,3.434-7.673,7.673v18.947c0,4.238,3.435,7.673,7.673,7.673h81.653
	c4.237,0,7.673-3.434,7.673-7.673V394.409l2.479-6.54l11.058-26.579l12.153-17.086c4.258-5.935,5.946-13.193,4.753-20.437
	C241.999,316.526,238.074,310.192,232.138,305.935z M88.126,269.149c0-4.846,3.943-8.789,8.788-8.789s8.788,3.943,8.788,8.789
	v24.448v56.264H88.126v-58.602V269.149z M63.993,282.472c4.846,0,8.788,3.943,8.788,8.788v58.602H55.206v-41.647
	c0-0.006,0-0.013,0-0.019V291.26C55.205,286.414,59.147,282.472,63.993,282.472z M121.047,349.876v-56.28
	c0-4.846,3.943-8.789,8.788-8.789c4.846,0,8.788,3.943,8.788,8.789v56.28H121.047z"/>
<path d="M505.063,308.214c0-13.307-10.826-24.134-24.133-24.134c-3.324,0-6.493,0.675-9.378,1.897
	c-2.416-10.773-12.052-18.85-23.544-18.85c-3.104,0-6.069,0.595-8.797,1.667c-0.191-13.144-10.936-23.779-24.124-23.779
	c-13.307,0-24.133,10.826-24.133,24.134v1.978c-2.725-1.07-5.688-1.663-8.788-1.663c-13.307,0-24.133,10.826-24.133,24.134v56.28
	h-11.32l-28.647-37.732c-8.834-12.212-25.946-14.998-38.203-6.209c-5.935,4.257-9.861,10.591-11.052,17.835
	c-1.193,7.243,0.495,14.501,4.734,20.41l12.171,17.112l11.058,26.578l2.479,6.541v43.433c0,4.238,3.435,7.673,7.673,7.673
	s7.673-3.434,7.673-7.673v-44.838c0-0.929-0.169-1.851-0.498-2.719l-3.02-7.968c-0.029-0.076-0.059-0.151-0.09-0.228l-11.435-27.487
	c-0.008-0.019-0.018-0.037-0.027-0.055c-0.059-0.138-0.127-0.273-0.195-0.409c-0.051-0.104-0.1-0.21-0.157-0.31
	c-0.051-0.092-0.109-0.181-0.166-0.272c-0.084-0.138-0.168-0.275-0.259-0.406c-0.01-0.015-0.018-0.032-0.03-0.046l-12.689-17.841
	c-1.868-2.604-2.607-5.799-2.08-8.998c0.527-3.199,2.251-5.99,4.855-7.858c5.414-3.884,12.976-2.637,16.857,2.774
	c0.041,0.057,0.082,0.113,0.124,0.168l21.88,28.819c-3.232,0.903-5.605,3.862-5.605,7.383c0,4.238,3.435,7.673,7.673,7.673h35.972
	h32.921h65.842c4.237,0,7.673-3.434,7.673-7.673v-0.005v-0.01v-49.33c0.005-4.842,3.946-8.778,8.788-8.778
	c4.846,0,8.788,3.943,8.788,8.789v63.952c0,0.173-0.008,0.344-0.018,0.514c-0.019,0.326-0.018,0.655,0.004,0.981
	c0.008,0.116,0.013,0.233,0.013,0.35c0,4.156-5.575,8.788-13.575,8.788c-0.449,0-0.897,0.039-1.34,0.118l-53.018,9.403
	c-0.437,0.078-0.865,0.192-1.282,0.344c-0.396,0.144-39.596,18.717-39.596,62.217v41.775h-66.308v-30.846
	c0-4.238-3.435-7.673-7.673-7.673s-7.673,3.434-7.673,7.673v38.518c0,4.238,3.435,7.673,7.673,7.673h81.653
	c4.237,0,7.673-3.434,7.673-7.673v-49.448c0-30.064,24.334-44.907,29.372-47.658l51.235-9.087
	c15.617-0.319,28.204-11.019,28.204-24.126c0-0.3-0.007-0.598-0.02-0.896c0.013-0.314,0.021-0.63,0.021-0.948v-63.954H505.063z
	 M448.009,282.472c4.846,0,8.789,3.943,8.789,8.788v16.935c0,0.007,0,0.013,0,0.019v41.647h-17.576V291.26
	C439.221,286.414,443.163,282.472,448.009,282.472z M406.3,269.149c0-4.846,3.943-8.789,8.788-8.789
	c4.845,0,8.788,3.943,8.788,8.789v22.11v58.602h-17.576v-56.264v-24.448H406.3z M373.379,293.597c0-4.846,3.943-8.789,8.788-8.789
	s8.788,3.943,8.788,8.789v56.28h-17.576v-56.28H373.379z"/>
<g>
</g>
<g>
</g>
<g>
</g>
<g>
</g>
<g>
</g>
<g>
</g>
<g>
</g>
<g>
</g>
<g>
</g>
<g>
</g>
<g>
</g>
<g>
</g>
<g>
</g>
<g>
</g>
<g>
</g>
</svg>
