<?xml version="1.0" encoding="iso-8859-1"?>
<!-- Generator: Adobe Illustrator 19.0.0, SVG Export Plug-In . SVG Version: 6.00 Build 0)  -->
<svg version="1.1" id="Layer_1" xmlns="http://www.w3.org/2000/svg" xmlns:xlink="http://www.w3.org/1999/xlink" x="0px" y="0px"
	 viewBox="0 0 512 512" style="enable-background:new 0 0 512 512;" xml:space="preserve">
<g>
	<g>
		<path d="M157.42,149.332c-0.56-2.015-1.927-3.762-3.746-4.799c-1.83-1.034-4.031-1.304-6.056-0.742
			c-2.015,0.56-3.762,1.926-4.796,3.756s-1.304,4.031-0.744,6.046c0.561,2.026,1.927,3.772,3.757,4.806
			c1.827,1.024,4.028,1.294,6.044,0.735c2.025-0.562,3.772-1.929,4.809-3.749C157.712,153.558,157.983,151.357,157.42,149.332z" fill="#21ACC6"/>
	</g>
</g>
<g>
	<g>
		<path d="M369.92,149.332c-0.56-2.015-1.927-3.762-3.746-4.799c-1.83-1.034-4.031-1.304-6.056-0.742
			c-2.015,0.56-3.762,1.926-4.797,3.756c-1.034,1.83-1.304,4.031-0.744,6.046c0.562,2.026,1.928,3.772,3.758,4.806
			c1.827,1.024,4.028,1.294,6.044,0.735c2.025-0.562,3.772-1.929,4.809-3.749C370.212,153.558,370.483,151.357,369.92,149.332z" fill="#21ACC6"/>
	</g>
</g>
<g>
	<g>
		<path d="M269.75,7.714C266.804,2.884,261.663,0,255.999,0c-5.664,0-10.805,2.884-13.751,7.714
			c-8.275,13.563-12.649,29.161-12.649,45.106c0,15.946,4.374,31.543,12.649,45.106c2.946,4.83,8.087,7.714,13.751,7.714
			c5.664,0,10.805-2.884,13.751-7.714c8.275-13.563,12.649-29.16,12.649-45.106S278.025,21.277,269.75,7.714z M256.945,90.113
			c-0.08,0.13-0.321,0.526-0.946,0.526c-0.625,0-0.866-0.396-0.946-0.526c-6.839-11.208-10.454-24.104-10.454-37.293
			c0-13.189,3.615-26.084,10.454-37.294c0.08-0.13,0.321-0.526,0.946-0.526c0.625,0,0.866,0.396,0.946,0.526
			c6.839,11.21,10.454,24.106,10.454,37.294S263.784,78.904,256.945,90.113z" fill="#21ACC6"/>
	</g>
</g>
<g>
	<g>
		<path d="M318.222,72.986c-16.784,0-30.439,13.655-30.439,30.439s13.654,30.439,30.439,30.439
			c16.784,0,30.439-13.655,30.439-30.439S335.006,72.986,318.222,72.986z M318.222,118.863c-8.513,0-15.439-6.926-15.439-15.439
			s6.925-15.439,15.439-15.439s15.439,6.926,15.439,15.439S326.735,118.863,318.222,118.863z" fill="#21ACC6"/>
	</g>
</g>
<g>
	<g>
		<path d="M193.776,72.986c-6.631,0-12.937,2.097-18.233,6.064c-3.316,2.483-3.991,7.184-1.508,10.499
			c2.481,3.315,7.183,3.99,10.498,1.508c2.683-2.009,5.879-3.071,9.243-3.071c8.514,0,15.439,6.926,15.439,15.439
			s-6.926,15.439-15.439,15.439s-15.439-6.926-15.439-15.439c0-4.142-3.357-7.5-7.5-7.5s-7.5,3.358-7.5,7.5
			c0,16.783,13.655,30.439,30.439,30.439s30.439-13.655,30.439-30.439S210.56,72.986,193.776,72.986z" fill="#21ACC6"/>
	</g>
</g>
<g>
	<g>
		<path d="M353.01,408.938c-4.946-10.515-11.448-19.963-19.164-28.12l24.806-50.116l49.503,1.971
			c-0.786,2.223-1.701,4.402-2.75,6.521l-27.396,55.348c-1.838,3.712-0.317,8.211,3.395,10.049
			c1.069,0.529,6.929,2.743,10.049-3.395l27.396-55.348c7.157-14.459,9.457-31.155,6.477-47.012l-9.274-49.335
			c-1.681-8.938-7.32-16.378-15.471-20.413c-8.154-4.035-17.488-4.005-25.613,0.079c0,0-48.184,24.325-49.8,25.297v-29.178
			c0-16.135-5.345-32.118-15.051-45.006l-30.197-40.1c-5.471-7.265-13.825-11.432-22.92-11.432c-9.095,0-17.449,4.167-22.92,11.432
			l-30.197,40.1c-9.706,12.888-15.051,28.872-15.051,45.006v30.405c-2.241-1.445-51.8-26.523-51.8-26.523
			c-8.126-4.085-17.462-4.113-25.613-0.079c-8.15,4.035-13.79,11.475-15.471,20.414l-9.274,49.334
			c-2.98,15.857-0.681,32.553,6.477,47.012l34.629,69.961c-21.566,10.779-36.418,33.069-36.418,58.774
			c0,4.674,0.496,9.343,1.473,13.876c2.937,13.639,15.242,23.54,29.256,23.54h267.816c14.014,0,26.318-9.901,29.258-23.542
			c0.977-4.534,1.483-9.203,1.473-13.877C420.499,409.833,353.667,408.917,353.01,408.938z M399.661,247.852
			c0.787,1.343,1.349,2.832,1.648,4.42l9.274,49.334c1.003,5.336,1.249,10.791,0.782,16.182l-45.426-1.808L399.661,247.852z
			 M336.852,265.11l44.852-22.542c1.444-0.726,2.969-1.182,4.514-1.371l-33.283,67.242l-26.08-36.986
			C329.966,269.019,333.307,266.892,336.852,265.11z M325.167,295.09l20.197,28.643l-20.197,40.804V295.09z M263.499,145.392
			c1.705,0.921,3.224,2.197,4.438,3.809l30.197,40.1c2.287,3.036,4.262,6.292,5.923,9.698l-40.558,22V145.392z M215.864,189.301
			l30.197-40.1c0.714-0.948,1.539-1.774,2.438-2.491v75.277l-40.666-18.153C209.82,198.656,212.516,193.747,215.864,189.301z
			 M203.831,225.284c0-2.22,0.136-4.436,0.385-6.637l44.283,19.767V261c0,4.142,3.357,7.5,7.5,7.5c4.143,0,7.5-3.358,7.5-7.5
			v-22.936l45.46-24.66c0.796,3.902,1.208,7.885,1.208,11.88v136.734c-13.991-8.176-29.893-13.19-46.668-14.348V284.5
			c0-4.142-3.357-7.5-7.5-7.5c-4.143,0-7.5,3.358-7.5,7.5v63.17c-15.983,1.103-31.168,5.715-44.668,13.219V225.284z
			 M130.295,242.568l44.852,22.542c3.544,1.781,6.886,3.908,9.997,6.343l-26.08,36.986l-33.283-67.242
			C127.326,241.386,128.851,241.842,130.295,242.568z M188.831,292.254v76.325l-22.197-44.845L188.831,292.254z M101.415,301.606
			l9.274-49.334c0.299-1.589,0.861-3.077,1.648-4.42l33.722,68.128l-45.426,1.808C100.166,312.397,100.412,306.943,101.415,301.606z
			 M106.593,339.193c-1.049-2.118-1.964-4.297-2.75-6.521l49.503-1.971l24.806,50.116c-7.715,8.157-14.217,17.606-19.163,28.12
			c-0.657-0.021-10.823-0.938-17.016,1.732L106.593,339.193z M404.501,485.298c-1.461,6.78-7.599,11.702-14.594,11.702H122.091
			c-6.995,0-13.133-4.921-14.595-11.703c-0.754-3.497-1.136-7.103-1.136-10.716c0-27.942,22.732-50.675,50.675-50.675
			c1.869,0,3.832,0.116,5.832,0.345c3.331,0.39,6.517-1.498,7.792-4.604c14.272-34.772,47.771-57.241,85.34-57.241
			c37.569,0,71.067,22.468,85.341,57.241c1.275,3.105,4.461,4.992,7.792,4.603c2-0.229,3.961-0.345,5.831-0.345
			c27.942,0,50.675,22.732,50.675,50.675C405.638,478.195,405.256,481.8,404.501,485.298z" fill="#21ACC6"/>
	</g>
</g>
<g>
	<g>
		<path d="M302.951,427.574c-0.56-2.015-1.926-3.762-3.746-4.799c-1.83-1.035-4.031-1.304-6.056-0.742
			c-2.015,0.56-3.762,1.926-4.796,3.756c-1.034,1.829-1.304,4.031-0.744,6.046c0.562,2.025,1.928,3.772,3.758,4.806
			c1.827,1.024,4.029,1.295,6.044,0.735c2.026-0.562,3.772-1.929,4.808-3.749C303.243,431.8,303.513,429.599,302.951,427.574z" fill="#21ACC6"/>
	</g>
</g>
<g>
	<g>
		<path d="M270.929,464.739c-0.56-2.015-1.926-3.762-3.746-4.799c-1.83-1.035-4.031-1.304-6.056-0.742
			c-2.016,0.56-3.763,1.926-4.797,3.756c-1.034,1.829-1.304,4.031-0.744,6.046c0.562,2.025,1.928,3.772,3.758,4.806
			c1.827,1.024,4.029,1.295,6.044,0.735c2.026-0.563,3.772-1.929,4.809-3.749C271.221,468.965,271.491,466.764,270.929,464.739z" fill="#21ACC6"/>
	</g>
</g>
<g>
	<g>
		<path d="M338.151,464.739c-0.56-2.015-1.926-3.762-3.746-4.799c-1.83-1.035-4.031-1.304-6.056-0.742
			c-2.016,0.56-3.763,1.926-4.797,3.756c-1.034,1.829-1.304,4.031-0.744,6.046c0.562,2.025,1.928,3.772,3.758,4.806
			c1.827,1.024,4.029,1.295,6.044,0.735c2.025-0.563,3.771-1.929,4.809-3.749C338.443,468.965,338.713,466.764,338.151,464.739z" fill="#21ACC6"/>
	</g>
</g>
<g>
</g>
<g>
</g>
<g>
</g>
<g>
</g>
<g>
</g>
<g>
</g>
<g>
</g>
<g>
</g>
<g>
</g>
<g>
</g>
<g>
</g>
<g>
</g>
<g>
</g>
<g>
</g>
<g>
</g>
</svg>
