<?xml version="1.0" encoding="iso-8859-1"?>
<!-- Generator: Adobe Illustrator 19.0.0, SVG Export Plug-In . SVG Version: 6.00 Build 0)  -->
<svg version="1.1" id="Capa_1" xmlns="http://www.w3.org/2000/svg" xmlns:xlink="http://www.w3.org/1999/xlink" x="0px" y="0px"
	 viewBox="0 0 512 512" style="enable-background:new 0 0 512 512;" xml:space="preserve">
<path style="fill:#57E5D0;" d="M103.318,250.886l-9.274,49.334c-2.699,14.359-0.654,29.206,5.827,42.299l69.034,139.469
	l106.005-52.285l-66.295-141.01c-6.481-13.094-17.046-23.724-30.1-30.285l-44.852-22.543
	C121.07,229.537,105.922,237.035,103.318,250.886z"/>
<g>
	<path style="fill:#28C6AF;" d="M157.966,323.012l37.223-52.79c-4.881-4.734-10.473-8.742-16.628-11.835l-44.852-22.543
		c-12.593-6.329-27.74,1.169-30.344,15.02l-9.274,49.334c-1.586,8.435-1.521,17.035,0.105,25.353L157.966,323.012z"/>
	<path style="fill:#28C6AF;" d="M114.745,235.809c-5.687,2.815-10.124,8.152-11.426,15.078l-9.275,49.334
		c-2.699,14.359-0.654,29.206,5.827,42.299l69.034,139.469l54.41-26.837L114.745,235.809z"/>
</g>
<path style="fill:#12B59E;" d="M114.756,235.832c-5.664,2.821-10.083,8.145-11.381,15.052l-9.274,49.334
	c-1.586,8.435-1.521,17.035,0.105,25.353l63.714-2.536L114.756,235.832z"/>
<path style="fill:#FF5C5C;" d="M408.68,250.886l9.275,49.334c2.699,14.359,0.654,29.206-5.827,42.299l-69.034,139.469
	l-106.005-52.285l66.295-141.01c6.481-13.094,17.046-23.724,30.1-30.285l44.852-22.543
	C390.928,229.537,406.076,237.035,408.68,250.886z"/>
<g>
	<path style="fill:#FF3333;" d="M354.032,323.012l-37.223-52.79c4.881-4.734,10.473-8.742,16.628-11.835l44.852-22.543
		c12.593-6.329,27.74,1.169,30.344,15.02l9.275,49.334c1.586,8.435,1.521,17.035-0.105,25.353L354.032,323.012z"/>
	<path style="fill:#FF3333;" d="M397.253,235.809c5.687,2.815,10.124,8.152,11.426,15.078l9.275,49.334
		c2.699,14.359,0.654,29.206-5.827,42.299l-69.034,139.469l-54.41-26.837L397.253,235.809z"/>
</g>
<path style="fill:#F21C1C;" d="M397.242,235.832c5.664,2.821,10.083,8.145,11.381,15.052l9.274,49.334
	c1.586,8.435,1.521,17.035-0.105,25.353l-63.714-2.536L397.242,235.832z"/>
<path style="fill:#FFE477;" d="M239.07,144.689l-30.197,40.1c-8.789,11.671-13.542,25.885-13.542,40.495v204.42h121.336v-204.42
	c0-14.61-4.753-28.824-13.542-40.495l-30.197-40.1C264.45,133.431,247.548,133.431,239.07,144.689z"/>
<g>
	<path style="fill:#FFDA44;" d="M256.051,233.572l56.778-30.799c-2.274-6.408-5.508-12.48-9.652-17.983l-30.197-40.1
		c-8.478-11.259-25.38-11.259-33.858,0l-30.197,40.1c-5.163,6.856-8.92,14.593-11.153,22.768L256.051,233.572z"/>
	<path style="fill:#FFDA44;" d="M255.999,136.245c-6.345,0-12.69,2.815-16.929,8.444l-30.197,40.1
		c-8.789,11.671-13.542,25.885-13.542,40.495v204.42h60.668V136.245z"/>
</g>
<path style="fill:#FFCD00;" d="M255.999,136.271c-6.328,0.015-12.65,2.827-16.877,8.441l-30.197,40.1
	c-5.163,6.856-8.92,14.593-11.153,22.768l58.227,25.992V136.271z"/>
<path style="fill:#CC7400;" d="M389.907,504.5c10.538,0,19.707-7.32,21.927-17.622c0.854-3.964,1.304-8.077,1.304-12.296
	c0-32.129-26.046-58.175-58.175-58.175c-2.262,0-4.49,0.143-6.685,0.394c-14.905-36.312-50.596-61.893-92.279-61.893
	s-77.374,25.581-92.279,61.893c-2.195-0.251-4.423-0.394-6.685-0.394c-32.129,0-58.175,26.046-58.175,58.175
	c0,4.219,0.45,8.333,1.304,12.297c2.22,10.302,11.389,17.622,21.926,17.622h267.817V504.5z"/>
<g>
	<path style="fill:#AA6100;" d="M197.351,450.659c10.218-3.021,19.19-9.302,25.192-18.106
		c12.424-18.221,39.591-45.772,90.286-45.772c6.026,0,11.92,0.551,17.651,1.575c-18.261-20.516-44.853-33.449-74.481-33.449
		c-41.683,0-77.374,25.581-92.279,61.893c-2.195-0.251-4.423-0.394-6.685-0.394c-32.129,0-58.175,26.046-58.175,58.175
		c0,4.274,0.462,8.439,1.337,12.45c2.235,10.238,11.414,17.468,21.893,17.468h33.649
		C156.585,478.97,173.869,457.601,197.351,450.659z"/>
	<path style="fill:#AA6100;" d="M297.411,437.376c-2.015,0.56-4.217,0.289-6.044-0.735c-1.83-1.034-3.196-2.781-3.758-4.806
		c-0.56-2.015-0.29-4.217,0.744-6.046c1.034-1.83,2.781-3.196,4.796-3.756c2.025-0.562,4.226-0.293,6.056,0.742
		c1.82,1.037,3.186,2.784,3.746,4.799c0.562,2.025,0.292,4.226-0.732,6.053C301.183,435.447,299.437,436.814,297.411,437.376z"/>
	<path style="fill:#AA6100;" d="M265.388,474.541c-2.015,0.56-4.217,0.289-6.044-0.735c-1.83-1.034-3.196-2.781-3.758-4.806
		c-0.56-2.015-0.29-4.217,0.744-6.046c1.034-1.83,2.781-3.196,4.797-3.756c2.025-0.562,4.226-0.293,6.056,0.742
		c1.82,1.037,3.186,2.784,3.746,4.799c0.562,2.025,0.292,4.226-0.732,6.053C269.16,472.612,267.414,473.978,265.388,474.541z"/>
	<path style="fill:#AA6100;" d="M332.61,474.541c-2.015,0.56-4.217,0.289-6.044-0.735c-1.83-1.034-3.196-2.781-3.758-4.806
		c-0.56-2.015-0.29-4.217,0.744-6.046c1.034-1.83,2.781-3.196,4.797-3.756c2.025-0.562,4.226-0.293,6.056,0.742
		c1.82,1.037,3.186,2.784,3.746,4.799c0.562,2.025,0.292,4.226-0.732,6.053C336.381,472.612,334.635,473.978,332.61,474.541z"/>
</g>
<path style="fill:#003F8A;" d="M263.348,11.62c-3.352-5.494-11.345-5.494-14.697,0c-7.325,12.006-11.551,26.106-11.551,41.2
	s4.226,29.194,11.551,41.2c3.352,5.494,11.345,5.494,14.697,0c7.325-12.006,11.551-26.106,11.551-41.2S270.673,23.626,263.348,11.62
	z"/>
<path style="fill:#003068;" d="M265.455,15.313c-0.673-1.249-1.37-2.484-2.107-3.692c-3.352-5.494-11.345-5.494-14.697,0
	c-7.325,12.006-11.551,26.106-11.551,41.2s4.226,29.194,11.551,41.2c3.352,5.494,11.345,5.494,14.697,0
	c0.737-1.208,1.434-2.443,2.107-3.692c-6.017-11.167-9.444-23.933-9.444-37.508S259.438,26.479,265.455,15.313z"/>
<g>
	<circle style="fill:#57E5D0;" cx="318.219" cy="103.42" r="22.939"/>
	<circle style="fill:#57E5D0;" cx="193.779" cy="103.42" r="22.939"/>
</g>
<g>
	<path style="fill:#28C6AF;" d="M193.777,103.424c0-8.489,4.615-15.896,11.47-19.863c-3.375-1.953-7.29-3.077-11.47-3.077
		c-12.669,0-22.939,10.27-22.939,22.939s10.27,22.939,22.939,22.939c4.18,0,8.095-1.123,11.47-3.077
		C198.392,119.32,193.777,111.914,193.777,103.424z"/>
	<path style="fill:#28C6AF;" d="M318.221,103.424c0-8.489,4.615-15.896,11.47-19.863c-3.375-1.953-7.29-3.077-11.47-3.077
		c-12.669,0-22.939,10.27-22.939,22.939s10.27,22.939,22.939,22.939c4.18,0,8.095-1.123,11.47-3.077
		C322.836,119.32,318.221,111.914,318.221,103.424z"/>
</g>
<path d="M145.835,158.399c1.827,1.024,4.028,1.294,6.044,0.735c2.025-0.562,3.772-1.929,4.809-3.749
	c1.024-1.827,1.295-4.028,0.732-6.053c-0.56-2.015-1.927-3.762-3.746-4.799c-1.83-1.034-4.031-1.304-6.056-0.742
	c-2.015,0.56-3.762,1.926-4.796,3.756c-1.034,1.83-1.304,4.031-0.744,6.046C142.639,155.619,144.005,157.365,145.835,158.399z"/>
<path d="M358.335,158.399c1.827,1.024,4.028,1.294,6.044,0.735c2.025-0.562,3.772-1.929,4.809-3.749
	c1.024-1.827,1.295-4.028,0.732-6.053c-0.56-2.015-1.927-3.762-3.746-4.799c-1.83-1.034-4.031-1.304-6.056-0.742
	c-2.015,0.56-3.762,1.926-4.797,3.756c-1.034,1.83-1.304,4.031-0.744,6.046C355.139,155.619,356.505,157.365,358.335,158.399z"/>
<path d="M255.999,105.64c5.664,0,10.805-2.884,13.751-7.714c8.275-13.563,12.649-29.16,12.649-45.106s-4.374-31.543-12.649-45.106
	C266.804,2.884,261.663,0,255.999,0s-10.805,2.884-13.751,7.714c-8.275,13.563-12.649,29.161-12.649,45.106
	c0,15.946,4.374,31.543,12.649,45.106C245.194,102.756,250.335,105.64,255.999,105.64z M255.053,15.526
	c0.08-0.13,0.321-0.526,0.946-0.526s0.866,0.396,0.946,0.526c6.839,11.21,10.454,24.106,10.454,37.294s-3.615,26.084-10.454,37.293
	c-0.08,0.13-0.321,0.526-0.946,0.526s-0.866-0.396-0.946-0.526c-6.839-11.208-10.454-24.104-10.454-37.293
	S248.214,26.736,255.053,15.526z"/>
<path d="M318.222,133.864c16.784,0,30.439-13.655,30.439-30.439s-13.655-30.439-30.439-30.439s-30.439,13.655-30.439,30.439
	S301.437,133.864,318.222,133.864z M318.222,87.985c8.514,0,15.439,6.926,15.439,15.439s-6.926,15.439-15.439,15.439
	s-15.439-6.926-15.439-15.439S309.708,87.985,318.222,87.985z"/>
<path d="M193.776,133.864c16.784,0,30.439-13.655,30.439-30.439s-13.655-30.439-30.439-30.439c-6.631,0-12.937,2.097-18.233,6.064
	c-3.316,2.483-3.991,7.184-1.508,10.499c2.481,3.315,7.183,3.99,10.498,1.508c2.683-2.009,5.879-3.071,9.243-3.071
	c8.514,0,15.439,6.926,15.439,15.439s-6.926,15.439-15.439,15.439s-15.439-6.926-15.439-15.439c0-4.142-3.357-7.5-7.5-7.5
	s-7.5,3.358-7.5,7.5C163.337,120.208,176.992,133.864,193.776,133.864z"/>
<path d="M353.01,408.938c-4.946-10.515-11.448-19.963-19.164-28.12l24.806-50.116l49.503,1.971c-0.786,2.223-1.701,4.402-2.75,6.521
	l-27.396,55.348c-1.838,3.712-0.317,8.211,3.395,10.049c1.069,0.529,6.929,2.743,10.049-3.395l27.396-55.348
	c7.157-14.459,9.457-31.155,6.477-47.012l-9.274-49.335c-1.681-8.938-7.32-16.378-15.471-20.413
	c-8.154-4.035-17.488-4.005-25.613,0.079c0,0-48.184,24.325-49.8,25.297v-29.178c0-16.135-5.345-32.118-15.051-45.006l-30.197-40.1
	c-5.471-7.265-13.825-11.432-22.92-11.432s-17.449,4.167-22.92,11.432l-30.197,40.1c-9.706,12.888-15.051,28.872-15.051,45.006
	v30.405c-2.241-1.445-51.8-26.523-51.8-26.523c-8.126-4.085-17.462-4.113-25.613-0.079c-8.15,4.035-13.79,11.475-15.471,20.414
	l-9.274,49.334c-2.98,15.857-0.681,32.553,6.477,47.012l34.629,69.961c-21.566,10.779-36.418,33.069-36.418,58.774
	c0,4.674,0.496,9.343,1.473,13.876c2.937,13.639,15.242,23.54,29.256,23.54h267.816c14.014,0,26.318-9.901,29.258-23.542
	c0.977-4.534,1.483-9.203,1.473-13.877C420.499,409.833,353.667,408.917,353.01,408.938z M399.661,247.852
	c0.787,1.343,1.349,2.832,1.648,4.42l9.274,49.334c1.003,5.336,1.249,10.791,0.782,16.182l-45.426-1.808L399.661,247.852z
	 M336.852,265.11l44.852-22.542c1.444-0.726,2.969-1.182,4.514-1.371l-33.283,67.242l-26.08-36.986
	C329.966,269.019,333.307,266.892,336.852,265.11z M325.167,295.09l20.197,28.643l-20.197,40.804V295.09z M263.499,145.392
	c1.705,0.921,3.224,2.197,4.438,3.809l30.197,40.1c2.287,3.036,4.262,6.292,5.923,9.698l-40.558,22V145.392z M215.864,189.301
	l30.197-40.1c0.714-0.948,1.539-1.774,2.438-2.491v75.277l-40.666-18.153C209.82,198.656,212.516,193.747,215.864,189.301z
	 M203.831,225.284c0-2.22,0.136-4.436,0.385-6.637l44.283,19.767V261c0,4.142,3.357,7.5,7.5,7.5s7.5-3.358,7.5-7.5v-22.936
	l45.46-24.66c0.796,3.902,1.208,7.885,1.208,11.88v136.734c-13.991-8.176-29.893-13.19-46.668-14.348V284.5
	c0-4.142-3.357-7.5-7.5-7.5s-7.5,3.358-7.5,7.5v63.17c-15.983,1.103-31.168,5.715-44.668,13.219V225.284z M130.295,242.568
	l44.852,22.542c3.544,1.781,6.886,3.908,9.997,6.343l-26.08,36.986l-33.283-67.242C127.326,241.386,128.851,241.842,130.295,242.568
	z M188.831,292.254v76.325l-22.197-44.845L188.831,292.254z M101.415,301.606l9.274-49.334c0.299-1.589,0.861-3.077,1.648-4.42
	l33.722,68.128l-45.426,1.808C100.166,312.397,100.412,306.943,101.415,301.606z M106.593,339.193
	c-1.049-2.118-1.964-4.297-2.75-6.521l49.503-1.971l24.806,50.116c-7.715,8.157-14.217,17.606-19.163,28.12
	c-0.657-0.021-10.823-0.938-17.016,1.732L106.593,339.193z M404.501,485.298c-1.461,6.78-7.599,11.702-14.594,11.702H122.091
	c-6.995,0-13.133-4.921-14.595-11.703c-0.754-3.497-1.136-7.103-1.136-10.716c0-27.942,22.732-50.675,50.675-50.675
	c1.869,0,3.832,0.116,5.832,0.345c3.331,0.39,6.517-1.498,7.792-4.604c14.272-34.772,47.771-57.241,85.34-57.241
	s71.067,22.468,85.341,57.241c1.275,3.105,4.461,4.992,7.792,4.603c2-0.229,3.961-0.345,5.831-0.345
	c27.942,0,50.675,22.732,50.675,50.675C405.638,478.195,405.256,481.8,404.501,485.298z"/>
<g>
</g>
<g>
</g>
<g>
</g>
<g>
</g>
<g>
</g>
<g>
</g>
<g>
</g>
<g>
</g>
<g>
</g>
<g>
</g>
<g>
</g>
<g>
</g>
<g>
</g>
<g>
</g>
<g>
</g>
</svg>
