<?xml version="1.0" encoding="iso-8859-1"?>
<!-- Generator: Adobe Illustrator 19.0.0, SVG Export Plug-In . SVG Version: 6.00 Build 0)  -->
<svg version="1.1" id="Capa_1" xmlns="http://www.w3.org/2000/svg" xmlns:xlink="http://www.w3.org/1999/xlink" x="0px" y="0px"
	 viewBox="0 0 512 512" style="enable-background:new 0 0 512 512;" xml:space="preserve">
<g>
	<g>
		<path d="M496.741,108.779c-3.924-3.924-10.288-3.924-14.214,0L356.992,234.316c-3.924,3.924-3.924,10.288,0,14.213
			c1.963,1.963,4.535,2.944,7.106,2.944c2.572,0,5.145-0.981,7.106-2.944l125.536-125.536
			C500.666,119.068,500.666,112.704,496.741,108.779z" fill="#21ACC6"/>
	</g>
</g>
<g>
	<g>
		<path d="M449.428,5.017c-3.939-3.909-10.302-3.885-14.213,0.056L298.753,142.614c-3.909,3.941-3.885,10.303,0.055,14.213
			c1.961,1.945,4.519,2.915,7.078,2.915c2.586,0,5.171-0.991,7.134-2.972L449.484,19.229C453.394,15.29,453.368,8.926,449.428,5.017
			z" fill="#21ACC6"/>
	</g>
</g>
<g>
	<g>
		<path d="M436.969,96.495c-3.924-3.923-10.288-3.922-14.213,0.002l-52.26,52.28c-3.924,3.926-3.923,10.289,0.002,14.213
			c1.963,1.962,4.534,2.943,7.105,2.943c2.573,0,5.146-0.982,7.107-2.945l52.26-52.28
			C440.895,106.782,440.893,100.418,436.969,96.495z" fill="#21ACC6"/>
	</g>
</g>
<g>
	<g>
		<path d="M455.567,64.588c-12.933,0-12.954,20.1,0,20.1C468.501,84.688,468.522,64.588,455.567,64.588z" fill="#21ACC6"/>
	</g>
</g>
<g>
	<g>
		<path d="M474.25,213.027c-3.925-3.924-10.288-3.924-14.214,0l-145.441,145.44c13.638-26.957,20.377-46.8,20.766-47.958
			c1.251-3.729,0.212-7.845-2.658-10.532s-7.046-3.455-10.684-1.963c-6.07,2.49-12.086,3.658-17.257,4.142
			c28.568-53.286,35.236-105.135,35.529-107.511c0.353-2.858-0.539-5.729-2.446-7.887c-1.907-2.157-4.649-3.392-7.528-3.392
			c-43.494,0-100.424,28.652-125.696,42.684c0.048-7.391,1.051-16.113,2.186-22.102c0.655-3.444-0.532-6.982-3.133-9.333
			c-2.6-2.352-6.239-3.179-9.601-2.18c-3.525,1.046-7.013,2.232-10.47,3.521L361.672,17.141c3.916-3.933,3.903-10.296-0.03-14.213
			c-3.933-3.917-10.296-3.902-14.213,0.03l-243.37,244.386c-39.102,35.737-64.819,74.713-67.416,78.718
			c-15.911,20.387-24.328,44.842-24.328,70.774C12.315,460.338,63.972,512,127.468,512c12.293,0,24.377-1.93,35.92-5.73
			c0.008-0.002,0.015-0.004,0.023-0.006c27.23-8.038,53.265-23.463,77.379-45.845c2.636-2.447,5.248-4.986,7.84-7.599
			c0.146-0.13,0.295-0.254,0.436-0.394L474.25,227.241C478.175,223.316,478.175,216.953,474.25,213.027z M157.284,487.117
			c-0.006,0.002-0.012,0.005-0.018,0.007c-0.018,0.006-0.04,0.013-0.057,0.019c-0.005,0.002-0.016,0.005-0.024,0.008
			c-9.535,3.151-19.533,4.748-29.717,4.748c-52.413,0.001-95.053-42.644-95.053-95.063c0-21.577,7.048-41.916,20.382-58.818
			c0.038-0.049,0.069-0.102,0.107-0.151c18.173-22.933,45.344-36.084,74.564-36.084c52.418,0,95.063,42.64,95.063,95.053
			C222.531,437.965,196.31,474.246,157.284,487.117z M235.117,437.836c4.871-12.826,7.513-26.667,7.513-41
			c0-63.496-51.662-115.153-115.163-115.153c-11.97,0-23.653,1.828-34.729,5.312c2.699-2.966,5.518-5.975,8.444-9.002
			c0.933-0.471,1.809-1.091,2.587-1.872l16.196-16.264c18.959-17.005,41.015-32.885,64.889-42.822
			c-0.73,9.715-0.579,21.334,2.895,29.152c1.177,2.648,3.439,4.659,6.207,5.517c2.769,0.859,5.772,0.48,8.24-1.037
			c0.709-0.436,66.093-40.326,116.064-46.425c-4.024,20.209-14.721,62.584-39.122,102.165c-1.73,2.806-1.974,6.281-0.653,9.301
			s4.039,5.2,7.273,5.835c0.597,0.117,10.436,1.977,23.603,0.323C298.24,348.162,273.681,398.557,235.117,437.836z" fill="#21ACC6"/>
	</g>
</g>
<g>
	<g>
		<path d="M95.228,336.677c-19.805,0-35.919,16.118-35.919,35.929c0,19.81,16.113,35.929,35.919,35.929
			c19.81,0,35.929-16.117,35.929-35.929C131.156,352.795,115.038,336.677,95.228,336.677z M95.228,388.434
			c-8.722,0-15.819-7.1-15.819-15.829s7.096-15.829,15.819-15.829c8.728,0,15.829,7.1,15.829,15.829S103.956,388.434,95.228,388.434
			z" fill="#21ACC6"/>
	</g>
</g>
<g>
	<g>
		<path d="M180.601,444.98c-1.804-7.307-7.264-13.331-14.979-16.529c-6.774-2.807-14.809-3.287-22.615-1.352
			c-7.814,1.93-14.697,6.097-19.381,11.733c-5.34,6.425-7.363,14.3-5.553,21.597c1.803,7.307,7.264,13.33,14.98,16.526
			c4.04,1.673,8.528,2.519,13.152,2.519c3.124,0,6.31-0.386,9.461-1.165C173.193,473.98,184.146,459.339,180.601,444.98z
			 M150.846,458.797c-3.627,0.895-7.309,0.745-10.102-0.412c-1.725-0.715-2.905-1.751-3.16-2.784
			c-0.253-1.021,0.308-2.487,1.499-3.922c1.933-2.325,5.119-4.172,8.752-5.069c1.565-0.388,3.141-0.58,4.65-0.58
			c1.984,0,3.855,0.332,5.441,0.989c1.726,0.715,2.906,1.753,3.16,2.777C161.685,452.225,157.906,457.053,150.846,458.797z" fill="#21ACC6"/>
	</g>
</g>
<g>
	<g>
		<path d="M198.24,408.367c-12.933,0-12.954,20.1,0,20.1C211.173,428.467,211.194,408.367,198.24,408.367z" fill="#21ACC6"/>
	</g>
</g>
<g>
	<g>
		<path d="M69.355,421.432c-12.933,0-12.954,20.1,0,20.1C82.288,441.532,82.309,421.432,69.355,421.432z" fill="#21ACC6"/>
	</g>
</g>
<g>
	<g>
		<path d="M136.265,310.883c-12.933,0-12.954,20.1,0,20.1C149.198,330.983,149.219,310.883,136.265,310.883z" fill="#21ACC6"/>
	</g>
</g>
<g>
	<g>
		<path d="M154.355,341.702c-12.933,0-12.954,20.1,0,20.1C167.288,361.802,167.309,341.702,154.355,341.702z" fill="#21ACC6"/>
	</g>
</g>
<g>
</g>
<g>
</g>
<g>
</g>
<g>
</g>
<g>
</g>
<g>
</g>
<g>
</g>
<g>
</g>
<g>
</g>
<g>
</g>
<g>
</g>
<g>
</g>
<g>
</g>
<g>
</g>
<g>
</g>
</svg>
