<?xml version="1.0" encoding="iso-8859-1"?>
<!-- Generator: Adobe Illustrator 19.0.0, SVG Export Plug-In . SVG Version: 6.00 Build 0)  -->
<svg version="1.1" id="Capa_1" xmlns="http://www.w3.org/2000/svg" xmlns:xlink="http://www.w3.org/1999/xlink" x="0px" y="0px"
	 viewBox="0 0 512 512" style="enable-background:new 0 0 512 512;" xml:space="preserve">
<path style="fill:#FF7D46;" d="M159.802,494.754c42.328-13.96,70.769-53.31,70.769-97.918c0-56.846-46.251-103.093-103.103-103.093
	c-31.727,0-61.226,14.294-80.933,39.216l-3.266-2.336c2.767-4.293,68.729-105.437,153.093-130.483l3.163-0.939l-0.616,3.242
	c-0.049,0.257-4.57,24.416-0.926,36.682c13.171-7.855,82.48-47.72,132.334-47.72h2.273l-0.278,2.256
	c-0.075,0.609-7.782,60.6-41.31,116.454c1.805,0.195,4.365,0.386,7.444,0.386c6.533,0,16.455-0.876,26.626-5.049l4.067-1.669
	l-1.399,4.168c-0.132,0.393-13.487,39.752-40.527,82.641C262.19,430.285,219.98,481.242,161,498.592L159.802,494.754z"/>
<path style="fill:#917464;" d="M127.468,503.96c-59.063,0-107.113-48.055-107.113-107.123c0-24.287,7.925-47.183,22.922-66.221
	l0.105-0.149c20.475-25.892,51.123-40.743,84.087-40.743c59.068,0,107.123,48.051,107.123,107.113
	c0,46.345-29.549,87.23-73.53,101.735C150.212,502.157,138.94,503.96,127.468,503.96z M152.471,437.99
	c-2.174,0-4.385,0.274-6.571,0.817c-5.335,1.318-9.95,4.064-13.001,7.733c-2.903,3.494-4.012,7.4-3.12,10.997
	c1.458,5.908,8.061,9.877,16.429,9.878h0.001c2.171,0,4.379-0.273,6.564-0.813c10.78-2.663,18.01-11.067,16.118-18.732
	C167.434,441.96,160.835,437.99,152.471,437.99z M95.228,348.737c-13.155,0-23.859,10.707-23.859,23.869
	c0,13.161,10.703,23.869,23.859,23.869c13.161,0,23.869-10.707,23.869-23.869C119.096,359.444,108.389,348.737,95.228,348.737z"/>
<g>
	<path style="fill:#FF4F4F;" d="M146.209,471.435c-10.252,0-18.423-5.197-20.331-12.932c-1.207-4.867,0.189-10.029,3.931-14.531
		c3.595-4.326,8.967-7.546,15.126-9.066c2.5-0.62,5.037-0.935,7.536-0.935c10.246,0,18.414,5.199,20.324,12.936
		c2.423,9.818-6.125,20.403-19.057,23.598C151.239,471.122,148.705,471.435,146.209,471.435z"/>
	<path style="fill:#FF4F4F;" d="M95.228,400.494c-15.372,0-27.879-12.511-27.879-27.889c0-15.377,12.506-27.889,27.879-27.889
		c15.377,0,27.889,12.511,27.889,27.889C123.116,387.983,110.605,400.494,95.228,400.494z"/>
</g>
<path d="M356.992,248.529c1.963,1.963,4.535,2.944,7.106,2.944s5.145-0.981,7.106-2.944l125.536-125.536
	c3.924-3.925,3.924-10.288,0-14.214c-3.925-3.925-10.288-3.925-14.214,0L356.992,234.316
	C353.068,238.24,353.068,244.604,356.992,248.529z"/>
<path d="M298.808,156.827c1.961,1.945,4.519,2.915,7.078,2.915c2.586,0,5.171-0.991,7.134-2.972L449.484,19.229
	c3.909-3.94,3.884-10.303-0.056-14.213c-3.939-3.909-10.302-3.885-14.213,0.056L298.753,142.614
	C294.843,146.555,294.867,152.917,298.808,156.827z"/>
<path d="M384.711,162.987l52.26-52.28c3.925-3.926,3.923-10.289-0.002-14.213c-3.924-3.924-10.288-3.923-14.213,0.002l-52.26,52.28
	c-3.925,3.926-3.923,10.289,0.002,14.213c1.963,1.962,4.534,2.943,7.105,2.943C380.176,165.932,382.749,164.95,384.711,162.987z"/>
<path d="M455.567,84.688c12.933,0,12.954-20.1,0-20.1C442.634,64.588,442.613,84.688,455.567,84.688z"/>
<path d="M127.468,512c12.293,0,24.377-1.93,35.92-5.73c0.008-0.002,0.015-0.004,0.023-0.006
	c27.23-8.038,53.265-23.463,77.379-45.845c2.636-2.447,5.248-4.986,7.84-7.599c0.146-0.13,0.295-0.254,0.436-0.394L474.25,227.241
	c3.924-3.925,3.924-10.288,0-14.214c-3.925-3.924-10.288-3.924-14.214,0l-145.441,145.44c13.638-26.957,20.377-46.8,20.766-47.958
	c1.251-3.729,0.212-7.845-2.658-10.532c-2.87-2.687-7.046-3.455-10.684-1.963c-6.07,2.49-12.086,3.658-17.257,4.142
	c28.568-53.286,35.236-105.135,35.529-107.511c0.353-2.858-0.539-5.729-2.446-7.887c-1.907-2.157-4.649-3.392-7.528-3.392
	c-43.494,0-100.424,28.652-125.696,42.684c0.048-7.391,1.051-16.113,2.186-22.102c0.655-3.444-0.532-6.982-3.133-9.333
	c-2.6-2.352-6.239-3.179-9.601-2.18c-3.525,1.046-7.013,2.232-10.47,3.521L361.672,17.141c3.916-3.933,3.903-10.296-0.03-14.213
	c-3.933-3.916-10.296-3.902-14.213,0.03l-243.37,244.386c-39.102,35.737-64.819,74.713-67.416,78.718
	c-15.911,20.387-24.328,44.842-24.328,70.774C12.315,460.338,63.972,512,127.468,512z M32.415,396.836
	c0-21.577,7.048-41.916,20.382-58.818c0.038-0.049,0.069-0.102,0.107-0.151c18.173-22.933,45.343-36.084,74.564-36.084
	c52.418,0,95.063,42.64,95.063,95.053c0,41.13-26.22,77.411-65.246,90.282c-0.006,0.002-0.012,0.005-0.018,0.007
	c-0.018,0.006-0.04,0.013-0.057,0.019c-0.005,0.002-0.016,0.005-0.024,0.008c-9.535,3.151-19.533,4.748-29.717,4.748
	C75.055,491.9,32.415,449.255,32.415,396.836z M184.854,217.036c-0.73,9.715-0.579,21.334,2.895,29.152
	c1.177,2.648,3.439,4.659,6.207,5.517c2.769,0.859,5.772,0.48,8.24-1.037c0.71-0.436,66.093-40.326,116.064-46.425
	c-4.024,20.209-14.721,62.584-39.122,102.165c-1.73,2.806-1.974,6.281-0.653,9.301c1.321,3.02,4.039,5.2,7.273,5.835
	c0.597,0.117,10.436,1.977,23.603,0.323c-11.122,26.295-35.681,76.689-74.245,115.969c4.871-12.826,7.513-26.667,7.513-41
	c0-63.496-51.662-115.153-115.163-115.153c-11.97,0-23.653,1.828-34.729,5.312c2.699-2.966,5.518-5.975,8.444-9.002
	c0.933-0.471,1.809-1.091,2.587-1.872l16.196-16.264C138.925,242.853,160.98,226.973,184.854,217.036z"/>
<path d="M131.156,372.606c0-19.811-16.118-35.929-35.929-35.929c-19.805,0-35.919,16.118-35.919,35.929s16.113,35.929,35.919,35.929
	C115.038,408.534,131.156,392.417,131.156,372.606z M95.228,388.434c-8.722,0-15.819-7.1-15.819-15.829s7.096-15.829,15.819-15.829
	c8.728,0,15.829,7.1,15.829,15.829S103.956,388.434,95.228,388.434z"/>
<path d="M180.601,444.979L180.601,444.979c-1.804-7.307-7.264-13.331-14.978-16.529c-6.774-2.807-14.809-3.287-22.615-1.352
	c-7.814,1.93-14.697,6.097-19.381,11.733c-5.34,6.425-7.363,14.3-5.553,21.597c1.803,7.307,7.264,13.33,14.98,16.526
	c4.04,1.673,8.528,2.519,13.152,2.519c3.124,0,6.31-0.386,9.461-1.165C173.193,473.98,184.146,459.339,180.601,444.979z
	 M140.744,458.385c-1.725-0.715-2.905-1.751-3.16-2.784c-0.253-1.021,0.308-2.487,1.499-3.922c1.933-2.325,5.119-4.172,8.752-5.069
	c1.565-0.388,3.141-0.58,4.65-0.58c1.984,0,3.855,0.332,5.441,0.989c1.726,0.715,2.906,1.753,3.16,2.777
	c0.599,2.428-3.18,7.256-10.24,9.001C147.219,459.693,143.537,459.542,140.744,458.385z"/>
<path d="M198.24,428.467c12.933,0,12.954-20.1,0-20.1C185.306,408.367,185.285,428.467,198.24,428.467z"/>
<path d="M69.355,421.432c-12.933,0-12.954,20.1,0,20.1C82.288,441.532,82.309,421.432,69.355,421.432z"/>
<path d="M136.265,330.983c12.933,0,12.954-20.1,0-20.1C123.331,310.883,123.31,330.983,136.265,330.983z"/>
<path d="M154.355,361.802c12.933,0,12.954-20.1,0-20.1C141.421,341.702,141.4,361.802,154.355,361.802z"/>
<g>
</g>
<g>
</g>
<g>
</g>
<g>
</g>
<g>
</g>
<g>
</g>
<g>
</g>
<g>
</g>
<g>
</g>
<g>
</g>
<g>
</g>
<g>
</g>
<g>
</g>
<g>
</g>
<g>
</g>
</svg>
